<svg width="260" height="162" viewBox="0 0 260 162" fill="none" xmlns="http://www.w3.org/2000/svg">
<g id="Group">
<path id="Vector" d="M229.559 18.9272L12.86 71.2561C12.2195 71.398 11.8131 72.0685 11.9842 72.7091L28.8066 142.1C28.9489 142.739 29.6208 143.145 30.2626 142.975L246.961 90.6744C247.601 90.5325 248.007 89.862 247.836 89.2214L231.015 19.8015C230.844 19.161 230.2 18.7853 229.559 18.9272ZM244.684 88.2948L31.1904 139.828L15.1384 73.607L228.632 22.0738L244.684 88.2948ZM227.609 10.9002L10.9387 63.2304C5.83991 64.4533 2.74456 69.5662 3.97206 74.6266L20.7945 144.018C22.022 149.078 27.144 152.197 32.214 150.973L248.912 98.6727C253.982 97.4486 257.106 92.337 255.879 87.2766L239.056 17.8854C237.83 12.7963 232.708 9.67736 227.609 10.9002ZM249.381 88.8352C249.743 90.3184 248.835 91.8275 247.349 92.1878L30.6512 144.488C29.1651 144.848 27.653 143.942 27.2917 142.459L10.4693 73.068C10.1081 71.5847 11.0153 70.0757 12.5302 69.7168L229.199 17.4152C230.686 17.0549 232.198 17.9607 232.559 19.444L249.381 88.8352Z" fill="#57B543"/>
<g id="Group_2">
<g id="Group_3">
<path id="Vector_2" d="M56.2775 109.634L60.2692 108.675L54.612 85.3789L50.7366 86.3151L48.5458 77.2992L65.2131 73.265C65.3883 73.2159 65.5922 73.1681 65.8248 73.1217C66.0575 73.0753 66.2326 73.0262 66.379 72.9757C66.5241 72.9538 66.7294 72.8774 67.0195 72.8337C68.1265 72.5703 69.2336 72.3069 70.3406 72.0436C71.449 71.7515 72.5534 71.5454 73.6276 71.3667C74.7292 71.218 75.7733 71.0666 76.816 70.9439C77.8587 70.8212 78.8673 70.8118 79.843 70.8871C80.8187 70.9624 81.7615 71.1223 82.6428 71.3656C83.524 71.6089 84.3985 71.9955 85.2099 72.4942C86.02 73.0215 86.7672 73.6608 87.4227 74.4108C88.1069 75.1621 88.6953 76.11 89.2468 77.2287C89.7983 78.3474 90.2554 79.634 90.6467 81.09C91.305 83.5936 91.4555 85.8717 91.0997 87.8957C90.7439 89.9197 89.9407 91.6637 88.6626 93.0975C87.3845 94.5314 85.7998 95.7493 83.9101 96.7228C82.0203 97.6962 79.735 98.5071 77.1418 99.1308C75.9185 99.4174 74.6116 99.6425 73.2213 99.8062L74.52 105.186L78.279 104.273L80.4904 113.462L58.4328 118.792L56.2775 109.634ZM71.2836 91.521L72.3332 91.2549C76.2085 90.3187 77.7234 88.1487 76.9078 84.7177C76.5492 83.1771 75.8199 82.1649 74.7196 81.6812C73.6482 81.1989 72.4439 81.084 71.1029 81.4225L68.9463 81.952L71.2836 91.521Z" fill="#57B543"/>
<path id="Vector_3" d="M133.811 88.5534C134.075 89.0547 134.289 89.4099 134.449 89.6762C134.61 89.9139 134.802 90.1243 135.052 90.3087C135.304 90.4644 135.531 90.5328 135.794 90.4591L138.008 89.9323L140.248 99.123L119.094 104.237L116.852 95.0747L119.912 94.3295C119.239 91.5378 118.319 90.2866 117.183 90.5486L110.132 92.2532C109.899 92.2996 109.749 92.4361 109.682 92.6341C109.614 92.8322 109.576 93.0316 109.624 93.2351C109.643 93.4372 109.688 93.6981 109.757 94.075C109.879 94.5408 110.084 95.068 110.43 95.6595C110.778 96.2222 111.112 96.4681 111.462 96.3698L113.619 95.8403L115.859 105.031L98.492 109.233L96.2546 99.985C97.0127 99.7912 97.6572 99.5633 98.1882 99.3011C99.4567 98.6717 100.198 97.6148 100.439 96.1889C100.519 95.7328 100.575 94.5569 100.608 92.6612L100.795 74.2438L95.3746 75.5662L93.1837 66.5503L118.65 60.4062L133.811 88.5534ZM115.122 84.2411L108.968 71.9603L109.237 85.6563L115.122 84.2411Z" fill="#57B543"/>
<path id="Vector_4" d="M158.808 60.2522L155.049 61.1653L160.706 84.4609L164.319 83.5984L166.53 92.7877L144.444 98.1157L142.232 88.9264L145.991 88.0134L140.334 64.7177L136.663 65.6062L134.472 56.5903L156.617 51.2364L158.808 60.2522Z" fill="#57B543"/>
<path id="Vector_5" d="M170.935 81.9594L175.102 80.9508L169.446 57.6265L165.104 58.6842L162.912 49.697L184.182 44.56C191.205 42.8541 196.913 43.3564 201.251 46.0067C205.589 48.6571 208.59 53.3709 210.226 60.1182C210.9 62.9099 211.057 65.6483 210.726 68.3634C210.395 71.0785 209.582 73.6269 208.289 75.9799C206.996 78.3329 205.11 80.4277 202.576 82.2328C200.07 84.0392 197.098 85.3635 193.63 86.2042L173.088 91.1746L170.935 81.9594ZM190.02 77.3506C191.272 77.0654 192.306 76.5397 193.117 75.831C193.957 75.1237 194.543 74.318 194.932 73.4167C195.32 72.5153 195.542 71.491 195.654 70.3466C195.766 69.2021 195.733 68.0794 195.639 67.04C195.516 65.9993 195.309 64.897 195.047 63.7634C194.758 62.571 194.462 61.5221 194.105 60.5564C193.777 59.5921 193.304 58.621 192.719 57.6156C192.133 56.6103 191.509 55.8044 190.789 55.1951C190.07 54.5859 189.198 54.1418 188.144 53.8904C187.09 53.6389 185.938 53.6414 184.656 53.9539L183.461 54.2419L189.117 77.5662L190.02 77.3506Z" fill="#57B543"/>
</g>
</g>
</g>
</svg>
